Coordinates
version=1
nRows=16
nColumns=40
inDegrees=yes

Units are S.I. units (second, meters, Newtons, ...)
Angles are in degrees.

endheader
time	pelvis_tilt	pelvis_list	pelvis_rotation	pelvis_tx	pelvis_ty	pelvis_tz	hip_flexion_r	hip_adduction_r	hip_rotation_r	knee_angle_r	knee_angle_r_beta	ankle_angle_r	subtalar_angle_r	mtp_angle_r	hip_flexion_l	hip_adduction_l	hip_rotation_l	knee_angle_l	knee_angle_l_beta	ankle_angle_l	subtalar_angle_l	mtp_angle_l	lumbar_extension	lumbar_bending	lumbar_rotation	arm_flex_r	arm_add_r	arm_rot_r	elbow_flex_r	pro_sup_r	wrist_flex_r	wrist_dev_r	arm_flex_l	arm_add_l	arm_rot_l	elbow_flex_l	pro_sup_l	wrist_flex_l	wrist_dev_l
     15.37250000	     -3.39737909	     -4.72751562	     -1.45301972	      1.02721680	      0.93488852	      0.43364150	     28.38681758	     -5.55474432	     -6.55293727	     51.67753281	     51.67753281	      5.73188905	     -9.13551493	     -0.21474722	     11.29328184	     -5.03539976	    -10.35695703	     20.65690385	     20.65690385	     15.80188208	     -5.90330379	      1.45336761	    -11.27854130	      3.73170932	     -0.13073262	      1.79573330	    -15.08416908	     -4.00656376	     28.09371641	     46.52356724	      0.00000000	      0.00000000	     13.04153634	    -15.08030659	     -4.96657670	     47.51452012	     46.39618506	      0.00000000	      0.00000000
     15.38557143	     -3.27628363	     -4.58170288	     -1.77513465	      1.02671676	      0.93556520	      0.43416629	     28.44413048	     -5.38125862	     -6.41795099	     48.86219388	     48.86219388	      5.70597655	     -8.21585088	     -0.00575399	     10.22474803	     -4.80051667	    -10.69039577	     19.60425562	     19.60425562	     15.71800107	     -5.75972355	      1.33153203	    -11.51310589	      3.51858763	     -0.18091931	      0.76222810	    -15.31802491	     -4.17730578	     27.76066692	     46.53887778	      0.00000000	      0.00000000	     13.51075596	    -15.09597927	     -5.10072382	     47.44140740	     46.41670872	      0.00000000	      0.00000000
     15.39864286	     -3.15299573	     -4.34839119	     -2.15542004	      1.02624312	      0.93613745	      0.43480422	     28.43115811	     -5.28225691	     -6.26899211	     45.81741488	     45.81741488	      5.54324098	     -7.03297122	      0.11434750	      9.13057475	     -4.45084028	    -11.03617948	     18.50912210	     18.50912210	     15.51516585	     -5.75925947	      1.01532634	    -11.74719088	      3.18016456	     -0.13485013	     -0.34505434	    -15.49015763	     -4.45073646	     27.58934585	     46.55277993	      0.00000000	      0.00000000	     14.05075415	    -15.14123129	     -5.30899322	     47.27249524	     46.44524061	      0.00000000	      0.00000000
     15.41171429	     -3.17218624	     -4.08342932	     -2.52925212	      1.02573187	      0.93632506	      0.43550298	     28.45087583	     -5.19969218	     -6.18524922	     42.49206547	     42.49206547	      5.00931266	     -5.77450686	     -0.85788300	      8.09134567	     -3.96226014	    -10.99561763	     17.09259836	     17.09259836	     14.41678547	     -6.62072746	     -0.94516988	    -11.83119280	      2.85740425	      0.31243559	     -2.05213955	    -15.54622147	     -5.82454059	     28.42897045	     46.58188283	      0.00000000	      0.00000000	     15.08785537	    -14.78578497	     -5.85177015	     46.18178288	     46.51461878	      0.00000000	      0.00000000
     15.42478571	     -3.14609867	     -3.91773329	     -2.88962309	      1.02527441	      0.93649046	      0.43638883	     28.32878753	     -4.96033687	     -6.15436335	     39.02610927	     39.02610927	      4.71502866	     -4.43879251	     -0.51532353	      7.23265690	     -3.73125097	    -11.36282990	     16.25153731	     16.25153731	     14.44418496	     -6.45019837	     -1.03195555	    -11.95206689	      2.64860374	      0.11461801	     -2.83140529	    -15.61694679	     -6.04017162	     28.27144929	     46.59311315	      0.00000000	      0.00000000	     15.24920656	    -14.95010194	     -5.92010567	     46.29048820	     46.52628541	      0.00000000	      0.00000000
     15.43785714	     -3.22801828	     -3.73474935	     -3.22669185	      1.02476776	      0.93640349	      0.43741515	     28.19729134	     -4.73131554	     -6.25625756	     35.38402738	     35.38402738	      4.37017007	     -2.89995922	     -0.13555788	      6.51789731	     -3.48613578	    -11.67666379	     15.42379642	     15.42379642	     14.41725816	     -6.33066992	     -1.10512730	    -11.98069852	      2.40299990	      0.00437985	     -3.60910540	    -15.64112042	     -6.22210307	     28.14167887	     46.60149714	      0.00000000	      0.00000000	     15.36560983	    -15.04517745	     -6.00761143	     46.39748398	     46.53872718	      0.00000000	      0.00000000
     15.45092857	     -3.33334403	     -3.54254758	     -3.56580851	      1.02431132	      0.93611834	      0.43851561	     28.00059971	     -4.48032649	     -6.40978046	     31.67700293	     31.67700293	      3.97141079	     -1.25275616	      0.32271794	      5.86494837	     -3.23580638	    -11.96633142	     14.67158908	     14.67158908	     14.42403583	     -6.24875591	     -1.21222132	    -11.96434929	      2.18935484	     -0.06703889	     -4.30260812	    -15.58455768	     -6.37671667	     28.05601399	     46.60721432	      0.00000000	      0.00000000	     15.48115052	    -15.11682337	     -6.09901301	     46.50681756	     46.55120213	      0.00000000	      0.00000000
     15.46400000	     -3.28875042	     -3.33639715	     -3.83269353	      1.02395490	      0.93590741	      0.43959999	     27.51865408	     -4.29534098	     -6.83436848	     27.93569539	     27.93569539	      3.54127499	      0.69133679	      0.75941735	      5.05507265	     -2.95399861	    -12.19430503	     13.91984809	     13.91984809	     14.37467600	     -6.16499175	     -1.42313959	    -12.14976956	      1.95466042	     -0.09654946	     -4.98268576	    -15.63768859	     -6.61522215	     28.03902735	     46.61563687	      0.00000000	      0.00000000	     15.61766523	    -15.09552815	     -6.21128488	     46.62740479	     46.56609095	      0.00000000	      0.00000000
     15.47707143	     -3.32311573	     -3.13830028	     -4.09671636	      1.02366213	      0.93534703	      0.44076538	     27.07557112	     -4.06486130	     -7.29440594	     24.34211963	     24.34211963	      3.07052833	      2.64921507	      1.31515190	      4.40621369	     -2.69967194	    -12.38782354	     13.31522804	     13.31522804	     14.39588841	     -6.15450377	     -1.76492677	    -12.19374454	      1.81223300	     -0.11892557	     -5.59559181	    -15.56996147	     -6.86980671	     28.08290820	     46.62264553	      0.00000000	      0.00000000	     15.73603185	    -15.05759594	     -6.32482492	     46.73479892	     46.58069931	      0.00000000	      0.00000000
     15.49014286	     -3.35156437	     -2.88247502	     -4.28103169	      1.02355779	      0.93455153	      0.44198957	     26.65653003	     -3.98943365	     -8.15502919	     21.16989746	     21.16989746	      2.77189027	      5.06456748	      1.90747494	      3.70875317	     -2.37107227	    -12.50599748	     12.58272443	     12.58272443	     14.00572855	     -6.30857173	     -2.90986920	    -12.22646250	      1.56602659	      0.01143439	     -6.40013420	    -15.45533851	     -7.80181561	     28.56377407	     46.64675200	      0.00000000	      0.00000000	     15.89686612	    -14.85225097	     -6.61710683	     46.76791166	     46.61426804	      0.00000000	      0.00000000
     15.50321429	     -3.43731072	     -2.81493041	     -4.47054202	      1.02336422	      0.93360812	      0.44352506	     26.19692391	     -3.52781627	     -8.53782121	     18.14903036	     18.14903036	      2.39798533	      6.41452343	      2.88123069	      3.34418411	     -2.34822442	    -12.59631776	     12.44517342	     12.44517342	     14.18384535	     -6.39796685	     -3.31122424	    -12.24190909	      1.53420370	     -0.03838303	     -6.73449783	    -15.27222972	     -8.00787216	     28.57119123	     46.65294821	      0.00000000	      0.00000000	     15.92576057	    -14.80788879	     -6.63715815	     46.81177239	     46.61789243	      0.00000000	      0.00000000
     15.51628571	     -3.51698621	     -2.71299144	     -4.59441478	      1.02344172	      0.93252768	      0.44507744	     25.80745885	     -3.18671020	     -9.10391343	     15.74802951	     15.74802951	      2.20523046	      7.79869807	      3.86398722	      2.96511230	     -2.30088589	    -12.72901752	     12.31319712	     12.31319712	     14.37538950	     -6.35142252	     -3.76084993	    -12.18887681	      1.51001249	     -0.05783328	     -7.04827729	    -15.11546827	     -8.19936054	     28.57211470	     46.65885822	      0.00000000	      0.00000000	     15.88246505	    -14.70779975	     -6.64629995	     46.85538030	     46.61962595	      0.00000000	      0.00000000
     15.52935714	     -3.55702225	     -2.62933842	     -4.70212813	      1.02376261	      0.93143590	      0.44675064	     25.44471132	     -2.86938488	     -9.73601102	     13.96947301	     13.96947301	      2.10460558	      8.90995922	      4.80869960	      2.57918275	     -2.29681289	    -12.91651963	     12.27648558	     12.27648558	     14.60472457	     -6.30106395	     -4.23907728	    -12.06342992	      1.46419885	     -0.07741446	     -7.29177078	    -14.93966260	     -8.37328293	     28.59380087	     46.66313887	      0.00000000	      0.00000000	     15.78487561	    -14.57286712	     -6.64434500	     46.87922310	     46.61895237	      0.00000000	      0.00000000
     15.54242857	     -3.61705751	     -2.61631721	     -4.75443012	      1.02422356	      0.93027331	      0.44852719	     25.15469364	     -2.52513285	    -10.26341212	     12.78974926	     12.78974926	      2.22794691	      9.80332493	      5.61046807	      2.21986477	     -2.38958447	    -13.00024807	     12.28616822	     12.28616822	     14.87562858	     -6.13737832	     -4.76140939	    -12.05781422	      1.58559607	     -0.06201735	     -7.41638644	    -14.76741056	     -8.55436557	     28.64327466	     46.66709468	      0.00000000	      0.00000000	     15.63720043	    -14.41756962	     -6.64393347	     46.86698660	     46.61755833	      0.00000000	      0.00000000
     15.55550000	     -3.68084729	     -2.57881423	     -4.79822440	      1.02496784	      0.92908666	      0.45037589	     24.93716394	     -2.24828283	    -10.65744827	     12.18959073	     12.18959073	      2.28121437	     10.17236207	      6.00030898	      1.87064614	     -2.46236316	    -13.09265875	     12.33551882	     12.33551882	     15.19579641	     -6.03541459	     -5.12409856	    -11.87665118	      1.68045173	     -0.04849471	     -7.47815365	    -14.55864968	     -8.65493934	     28.67491834	     46.66815516	      0.00000000	      0.00000000	     15.40550119	    -14.24752209	     -6.63687616	     46.79993450	     46.61425955	      0.00000000	      0.00000000
     15.56857143	     -3.71059204	     -2.54512051	     -4.81516399	      1.02596020	      0.92792548	      0.45229874	     24.77443904	     -2.02748728	    -10.89844056	     12.17591922	     12.17591922	      2.36286264	     10.13714741	      6.00449927	      1.46603568	     -2.52654077	    -13.07957680	     12.37628771	     12.37628771	     15.55493067	     -6.03345346	     -5.30608336	    -11.71020028	      1.78455685	     -0.01419306	     -7.46356455	    -14.35709291	     -8.66317335	     28.70054479	     46.66610814	      0.00000000	      0.00000000	     15.12576039	    -14.02610461	     -6.60155363	     46.70774623	     46.60698609	      0.00000000	      0.00000000
